<?xml version="1.0" encoding="utf-8"?>
<!DOCTYPE svg PUBLIC "-//W3C//DTD SVG 1.1//EN" "http://www.w3.org/Graphics/SVG/1.1/DTD/svg11.dtd">
<svg version="1.1" id="Capa_1" xmlns="http://www.w3.org/2000/svg" xmlns:xlink="http://www.w3.org/1999/xlink" x="0px" y="0px"
     width="512px" height="512px" viewBox="0 0 512 512" xml:space="preserve">
<path fill-rule="evenodd"  fill="rgb( 0, 0, 0 )"
 d="M8.438,25.000 C8.438,25.000 8.438,13.596 8.438,13.596 C8.438,13.596 12.271,13.596 12.271,13.596 C12.271,13.596 12.844,9.152 12.844,9.152 C12.844,9.152 8.438,9.152 8.438,9.152 C8.438,9.152 8.438,6.315 8.438,6.315 C8.438,5.028 8.796,4.151 10.643,4.151 C10.643,4.151 13.000,4.150 13.000,4.150 C13.000,4.150 13.000,0.175 13.000,0.175 C12.592,0.121 11.193,0.000 9.566,0.000 C6.169,0.000 3.843,2.071 3.843,5.875 C3.843,5.875 3.843,9.152 3.843,9.152 C3.843,9.152 0.000,9.152 0.000,9.152 C0.000,9.152 0.000,13.596 0.000,13.596 C0.000,13.596 3.843,13.596 3.843,13.596 C3.843,13.596 3.843,25.000 3.843,25.000 C3.843,25.000 8.438,25.000 8.438,25.000 Z"/>
</svg>