<?xml version="1.0" encoding="utf-8"?>
<!DOCTYPE svg PUBLIC "-//W3C//DTD SVG 1.1//EN" "http://www.w3.org/Graphics/SVG/1.1/DTD/svg11.dtd">
<svg version="1.1" xmlns="http://www.w3.org/2000/svg" xmlns:xlink="http://www.w3.org/1999/xlink" xmlns:ev="http://www.w3.org/2001/xml-events" width="55" height="55" >
<path fill-rule="evenodd"  fill="rgb( 255, 255, 255 )"
 d="M24.868,13.836 C24.868,13.836 21.636,13.836 21.636,13.836 C21.636,13.836 21.636,17.113 21.636,17.113 C21.636,17.187 21.577,17.247 21.503,17.247 C21.503,17.247 20.113,17.247 20.113,17.247 C20.040,17.247 19.980,17.187 19.980,17.113 C19.980,17.113 19.980,13.836 19.980,13.836 C19.980,13.836 16.765,13.836 16.765,13.836 C16.692,13.836 16.632,13.776 16.632,13.702 C16.632,13.702 16.632,12.278 16.632,12.278 C16.632,12.203 16.692,12.143 16.765,12.143 C16.765,12.143 19.980,12.143 19.980,12.143 C19.980,12.143 19.980,8.888 19.980,8.888 C19.980,8.813 20.040,8.753 20.113,8.753 C20.113,8.753 21.503,8.753 21.503,8.753 C21.577,8.753 21.636,8.813 21.636,8.888 C21.636,8.888 21.636,12.143 21.636,12.143 C21.636,12.143 24.868,12.143 24.868,12.143 C24.941,12.143 25.000,12.203 25.000,12.278 C25.000,12.278 25.000,13.701 25.000,13.701 C25.000,13.776 24.941,13.836 24.868,13.836 ZM14.590,1.363 C14.569,1.376 14.544,1.383 14.519,1.383 C14.519,1.383 12.484,1.383 12.484,1.383 C13.255,2.027 14.858,3.368 14.858,5.961 C14.858,8.540 13.361,9.733 12.040,10.784 C12.040,10.784 11.997,10.829 11.997,10.829 C11.581,11.246 11.111,11.720 11.111,12.438 C11.111,13.168 11.581,13.562 11.959,13.878 C11.959,13.878 13.182,14.840 13.182,14.840 C14.632,16.074 15.998,17.237 15.997,19.592 C15.997,22.776 12.973,25.999 7.194,25.999 C2.224,25.999 -0.000,23.564 -0.000,21.150 C-0.000,20.544 0.186,18.452 2.578,17.014 C4.603,15.755 7.376,15.563 8.865,15.460 C8.865,15.460 8.969,15.453 8.969,15.453 C8.969,15.453 8.911,15.377 8.911,15.377 C8.446,14.777 7.966,14.155 7.966,13.149 C7.966,12.631 8.103,12.300 8.248,11.949 C8.248,11.949 8.298,11.826 8.298,11.826 C7.959,11.858 7.575,11.894 7.228,11.894 C3.621,11.894 1.674,9.151 1.674,6.569 C1.674,4.894 2.473,3.196 3.812,2.028 C5.515,0.606 7.407,0.000 10.139,0.000 C10.139,0.000 16.272,0.000 16.272,0.000 C16.331,0.000 16.383,0.040 16.400,0.097 C16.416,0.155 16.393,0.216 16.343,0.248 C16.343,0.248 14.590,1.363 14.590,1.363 ZM5.820,16.949 C3.914,17.648 2.946,18.822 2.946,20.439 C2.946,22.915 5.312,24.579 8.835,24.579 C11.870,24.579 13.755,23.175 13.756,20.916 C13.756,19.143 12.571,18.211 10.106,16.438 C9.839,16.404 9.671,16.404 9.338,16.404 C9.318,16.404 7.347,16.430 5.820,16.949 ZM7.698,1.281 C6.811,1.281 5.891,1.721 5.354,2.400 C4.859,3.020 4.619,3.841 4.619,4.911 C4.619,7.015 5.846,10.944 8.802,10.944 C9.601,10.944 10.515,10.563 11.077,9.995 C11.913,9.146 11.913,7.922 11.913,7.520 C11.913,4.970 10.412,1.281 7.698,1.281 Z"/>
</svg>