<?xml version="1.0" encoding="utf-8"?>
<!DOCTYPE svg PUBLIC "-//W3C//DTD SVG 1.1//EN" "http://www.w3.org/Graphics/SVG/1.1/DTD/svg11.dtd">
<svg version="1.1" baseProfile="full"
 xmlns="http://www.w3.org/2000/svg"
 xmlns:xlink="http://www.w3.org/1999/xlink"
 xmlns:ev="http://www.w3.org/2001/xml-events" >
<path fill-rule="evenodd"  fill="rgb( 255, 255, 255 )"
 d="M13.742,21.669 C13.257,21.904 12.329,22.109 11.638,22.127 C9.550,22.184 9.145,20.637 9.127,19.513 C9.127,19.513 9.127,11.261 9.127,11.261 C9.127,11.261 14.365,11.261 14.365,11.261 C14.365,11.261 14.365,7.248 14.365,7.248 C14.365,7.248 9.146,7.248 9.146,7.248 C9.146,7.248 9.146,0.494 9.146,0.494 C9.146,0.494 5.388,0.494 5.326,0.494 C5.263,0.494 5.153,0.551 5.138,0.693 C4.915,2.760 3.963,6.387 0.007,7.837 C0.007,7.837 0.007,11.261 0.007,11.261 C0.007,11.261 2.646,11.261 2.646,11.261 C2.646,11.261 2.646,19.923 2.646,19.923 C2.646,22.888 4.799,27.101 10.480,27.003 C12.397,26.969 14.525,26.153 14.996,25.450 C14.996,25.450 13.742,21.669 13.742,21.669 Z"/>
</svg>