<?xml version="1.0" encoding="utf-8"?>
<!DOCTYPE svg PUBLIC "-//W3C//DTD SVG 1.1//EN" "http://www.w3.org/Graphics/SVG/1.1/DTD/svg11.dtd">
<svg version="1.1" baseProfile="full"
 xmlns="http://www.w3.org/2000/svg"
 xmlns:xlink="http://www.w3.org/1999/xlink"
 xmlns:ev="http://www.w3.org/2001/xml-events" >
<path fill-rule="evenodd"  fill="rgb( 255, 255, 255 )"
 d="M25.001,2.498 C25.001,2.498 25.001,2.498 25.001,2.498 C25.001,2.498 25.001,2.498 25.001,2.498 M17.309,0.093 C14.476,0.093 12.179,2.389 12.179,5.221 C12.179,5.623 12.225,6.015 12.312,6.390 C8.049,6.176 4.270,4.134 1.740,1.032 C1.298,1.789 1.045,2.670 1.045,3.610 C1.045,5.389 1.951,6.959 3.327,7.878 C2.486,7.852 1.696,7.621 1.004,7.237 C1.004,7.258 1.004,7.280 1.004,7.301 C1.004,9.786 2.772,11.859 5.118,12.330 C4.688,12.447 4.235,12.510 3.767,12.510 C3.436,12.510 3.115,12.478 2.802,12.418 C3.454,14.455 5.349,15.938 7.593,15.979 C5.838,17.355 3.626,18.174 1.223,18.174 C0.809,18.174 0.401,18.150 -0.001,18.103 C2.269,19.558 4.965,20.407 7.862,20.407 C17.297,20.407 22.456,12.593 22.456,5.816 C22.456,5.594 22.451,5.372 22.441,5.153 C23.444,4.429 24.313,3.526 25.001,2.498 C24.081,2.906 23.092,3.181 22.055,3.305 C23.114,2.671 23.927,1.666 24.310,0.468 C23.319,1.056 22.221,1.483 21.053,1.713 C20.117,0.716 18.784,0.093 17.309,0.093 "/>
</svg>